<mxfile host="app.diagrams.net" modified="2024-07-12T20:12:18.887Z" agent="Mozilla/5.0 (Windows NT 10.0; Win64; x64) AppleWebKit/537.36 (KHTML, like Gecko) Chrome/121.0.0.0 Safari/537.36" version="24.6.5" etag="SM5bn3SHEUKLCStRKmWT" type="github">
  <diagram name="PÃ¡gina-1" id="0NbkmuKTs1C9kRB3Gxi2">
    <mxGraphModel>
      <root>
        <mxCell id="0" />
        <mxCell id="1" parent="0" />
      </root>
    </mxGraphModel>
  </diagram>
</mxfile>
